<?xml version="1.0" standalone="no"?>
<!DOCTYPE svg PUBLIC "-//W3C//DTD SVG 20010904//EN"
 "http://www.w3.org/TR/2001/REC-SVG-20010904/DTD/svg10.dtd">
<svg version="1.0" xmlns="http://www.w3.org/2000/svg"
 width="300.000000pt" height="300.000000pt" viewBox="0 0 1280.000000 1280.000000"
 preserveAspectRatio="xMidYMid meet">
<g transform="translate(0.000000,1280.000000) scale(0.100000,-0.100000)"
fill="white" stroke="none">
<path d="M6145 12790 c-44 -4 -152 -13 -240 -20 -1245 -91 -2455 -561 -3445
-1339 -1412 -1109 -2299 -2762 -2430 -4526 -6 -82 -15 -200 -20 -261 -13 -141
-13 -347 0 -488 5 -61 14 -178 20 -261 76 -1028 417 -2046 982 -2933 486 -764
1174 -1453 1939 -1943 889 -569 1911 -912 2944 -989 83 -6 200 -15 261 -20
141 -13 347 -13 488 0 61 5 179 14 261 20 1238 92 2448 563 3435 1339 1412
1109 2299 2762 2430 4526 6 83 15 200 20 261 6 60 10 170 10 244 0 74 -4 184
-10 244 -5 61 -14 179 -20 261 -76 1028 -417 2046 -982 2933 -486 764 -1174
1453 -1939 1943 -890 570 -1911 912 -2949 989 -80 6 -195 15 -256 20 -125 11
-380 11 -499 0z m805 -525 c565 -57 1090 -182 1595 -380 1863 -731 3240 -2372
3629 -4325 86 -428 110 -684 110 -1160 0 -390 -9 -531 -55 -845 -371 -2571
-2413 -4613 -4984 -4984 -314 -46 -455 -55 -845 -55 -390 0 -531 9 -845 55
-2571 371 -4613 2413 -4984 4984 -46 314 -55 455 -55 845 0 390 9 531 55 845
319 2211 1886 4068 4016 4759 477 154 986 249 1503 280 145 8 712 -4 860 -19z"/>
<path d="M4175 9306 c-43 -19 -82 -64 -100 -115 -13 -39 -15 -344 -15 -2791 0
-3014 -4 -2797 58 -2864 52 -55 120 -69 203 -41 57 19 4720 2711 4771 2754
103 86 103 216 0 302 -51 43 -4714 2735 -4771 2754 -54 18 -106 19 -146 1z"/>
</g>
</svg>
